PathFileType	4	(X/Y/Z)	/Users/itak/Documents/Research/Walk-IL/dataset/trc/00509_00183.trc
DataRate	CameraRate	NumFrames	NumMarkers	Units	OrigDataRate	OrigDataStartFrame	OrigNumFrames
100.000000	100.000000	4	53	mm	100.000000	228	366
Frame#	Time	RPSI			LPSI			L3			STRN			T10			C7			CLAV			RBAK			LBAK			LSHO			LUPA			LAEL			LAOL			LWTS			LWPS			LFRA			LIFD			LHPS			LHTS			RSHO			RUPA			RAEL			RAOL			RWTS			RWPS			RFRA			RIFD			RHTS			RHPS			RBHD			LFHD			RFHD			LBHD			LHIP			RHIP			RASI			LASI			LKNE			LTHI			LANK			LTIP			LTOE			LMT1			LMT5			LHEE			RKNE			RTHI			RANK			RTIP			RTOE			RMT1			RMT5			RHEE			
		X1	Y1	Z1	X2	Y2	Z2	X3	Y3	Z3	X4	Y4	Z4	X5	Y5	Z5	X6	Y6	Z6	X7	Y7	Z7	X8	Y8	Z8	X9	Y9	Z9	X10	Y10	Z10	X11	Y11	Z11	X12	Y12	Z12	X13	Y13	Z13	X14	Y14	Z14	X15	Y15	Z15	X16	Y16	Z16	X17	Y17	Z17	X18	Y18	Z18	X19	Y19	Z19	X20	Y20	Z20	X21	Y21	Z21	X22	Y22	Z22	X23	Y23	Z23	X24	Y24	Z24	X25	Y25	Z25	X26	Y26	Z26	X27	Y27	Z27	X28	Y28	Z28	X29	Y29	Z29	X30	Y30	Z30	X31	Y31	Z31	X32	Y32	Z32	X33	Y33	Z33	X34	Y34	Z34	X35	Y35	Z35	X36	Y36	Z36	X37	Y37	Z37	X38	Y38	Z38	X39	Y39	Z39	X40	Y40	Z40	X41	Y41	Z41	X42	Y42	Z42	X43	Y43	Z43	X44	Y44	Z44	X45	Y45	Z45	X46	Y46	Z46	X47	Y47	Z47	X48	Y48	Z48	X49	Y49	Z49	X50	Y50	Z50	X51	Y51	Z51	X52	Y52	Z52	X53	Y53	Z53	

229	2.28	268.4142150878906	975.5423583984375	432.6982727050781	337.1208801269531	979.8675537109375	330.0797424316406	310.4277954101562	1053.985107421875	357.8358459472656	477.4416809082031	1207.240112304688	505.3714294433594	297.150146484375	1158.186279296875	335.7503356933594	339.474609375	1383.383178710938	370.8550720214844	447.8740844726562	1303.444458007812	481.8953552246094	240.5639801025391	1265.255981445312	391.7428588867188	385.8772583007812	1329.90185546875	290.0139770507812	504.5906982421875	1372.401733398438	312.4757080078125	547.827880859375	1246.566162109375	266.3147888183594	575.4305419921875	1071.977783203125	281.8621215820312	494.8988647460938	1014.981689453125	253.4775238037109	615.4282836914062	1082.183837890625	479.6702575683594	639.4536743164062	990.719482421875	474.8353271484375	602.8142700195312	1055.23095703125	340.6532592773438	646.072509765625	1033.531860351562	621.54150390625	663.709716796875	995.75048828125	527.198974609375	661.685546875	1060.521484375	541.5988159179688	275.3046569824219	1372.289184570312	512.6885986328125	211.9953765869141	1325.346069335938	520.7372436523438	93.80489349365234	1112.172485351562	450.5418395996094	105.8150177001953	1093.467895507812	387.08544921875	155.294189453125	937.5957641601562	577.8297729492188	80.19549560546875	906.2702026367188	536.5130004882812	82.59112548828125	1063.650634765625	462.1836853027344	149.9268035888672	790.8380126953125	616.0252075195312	128.5148315429688	859.4194946289062	633.1021728515625	81.26862335205078	843.0271606445312	582.3197631835938	310.9729614257812	1533.527954101562	468.5845947265625	482.2948303222656	1594.17236328125	384.9319763183594	426.4472045898438	1603.427001953125	498.66064453125	368.3204040527344	1515.319458007812	320.7665405273438	496.1617431640625	904.2367553710938	274.8695983886719	301.7895812988281	883.2255859375	600.3392944335938	413.7788696289062	936.2880859375	588.0109252929688	536.4371337890625	936.7706298828125	383.9801635742188	465.6694030761719	470.8932189941406	332.3012390136719	500.2904663085938	631.9625244140625	319.6763610839844	167.1648864746094	225.7866973876953	110.7871322631836	379.365234375	370.601806640625	259.7344360351562	179.0749664306641	50.87780380249023	202.9134674072266	145.9052886962891	121.4850769042969	214.5320281982422	190.1263275146484	119.9961853027344	119.6031723022461	123.3776168823242	269.5954284667969	151.9672698974609	451.9736633300781	516.7327270507812	622.4635009765625	354.0159606933594	762.413818359375	628.4788208007812	494.2671813964844	61.06657791137695	600.8525390625	493.3742980957031	374.0807189941406	632.4049072265625	682.6492919921875	69.24568939208984	674.132568359375	649.8784790039062	77.03788757324219	607.5894165039062	580.5872192382812	55.73486709594727	673.1019287109375	478.5430297851562	61.89788055419922	531.659912109375	
230	2.29	285.3525085449219	967.9367065429688	444.512451171875	353.5374755859375	972.18505859375	341.3461303710938	326.5879516601562	1047.189697265625	369.7974548339844	494.5914001464844	1202.175537109375	515.0762329101562	313.0690612792969	1151.540283203125	348.4625244140625	354.4170227050781	1377.37451171875	382.291748046875	464.2452697753906	1298.121337890625	491.5964050292969	256.0765380859375	1258.517944335938	404.7837524414062	399.9146118164062	1323.776123046875	301.1101684570312	518.9214477539062	1366.952880859375	321.453125	560.4683227539062	1240.959838867188	274.3074340820312	587.030029296875	1065.685180664062	288.2677612304688	505.1358947753906	1010.397155761719	261.3099060058594	631.9302978515625	1071.138549804688	485.480712890625	654.082275390625	979.3851928710938	478.0591125488281	615.552978515625	1047.291259765625	346.2075500488281	664.4761962890625	1018.170166015625	625.6104125976562	679.3678588867188	982.5841064453125	530.04150390625	678.8931274414062	1047.026489257812	546.0925903320312	291.5936889648438	1366.199951171875	524.8479614257812	228.9682769775391	1318.324584960938	534.2757568359375	112.1301956176758	1102.468139648438	468.6111755371094	122.8022003173828	1083.866577148438	404.8368835449219	179.0244750976562	929.6339111328125	594.66552734375	102.9505004882812	897.5659790039062	555.6486206054688	101.8933639526367	1053.926513671875	480.6217956542969	175.4188995361328	783.0203247070312	633.7431030273438	154.2822113037109	851.592529296875	650.9293212890625	105.7648315429688	834.6123046875	601.6229858398438	325.6395874023438	1527.270141601562	479.4207153320312	496.3954467773438	1589.304931640625	395.7502746582031	440.400634765625	1598.38916015625	509.4100036621094	383.4104309082031	1509.195190429688	331.6651306152344	513.5081787109375	897.9392700195312	286.5968017578125	319.2042236328125	876.2994384765625	612.2750854492188	431.2958374023438	930.6947631835938	600.3314819335938	553.2256469726562	931.752197265625	395.4726867675781	496.5748901367188	464.6995239257812	348.6939697265625	524.9948120117188	626.4248046875	334.4182434082031	192.6322174072266	234.8228759765625	121.8131256103516	408.8975524902344	369.4190368652344	274.5497436523438	208.1113128662109	55.84040832519531	205.6869354248047	174.0242614746094	125.3662338256836	220.9987030029297	217.2610473632812	129.2151947021484	125.4820175170898	148.7688293457031	276.3561096191406	165.3997192382812	468.7047729492188	509.9070129394531	632.6007080078125	371.5802612304688	755.7811889648438	640.5752563476562	506.7442321777344	57.07098388671875	603.40771484375	509.3278503417969	367.1033935546875	639.7802124023438	695.574462890625	60.12750625610352	677.1132202148438	662.6875610351562	69.22467803955078	610.4500122070312	592.9136962890625	50.48269271850586	675.9344482421875	490.9512634277344	57.20870971679688	534.3497314453125	
231	2.3	301.9388427734375	959.2166748046875	456.1171569824219	369.6213684082031	963.13916015625	352.3997192382812	342.520263671875	1039.28564453125	381.6196594238281	511.7581787109375	1196.19921875	524.5126953125	328.9177551269531	1143.83056640625	361.1217041015625	369.2983703613281	1370.40771484375	393.8177795410156	480.7003479003906	1291.869506835938	501.1107788085938	271.64111328125	1250.868041992188	417.9864196777344	413.7579345703125	1316.665893554688	312.2756958007812	533.0779418945312	1360.68115234375	330.1679077148438	572.673095703125	1234.5185546875	281.9692687988281	598.1139526367188	1058.5537109375	294.1473999023438	514.791748046875	1005.049987792969	269.0121154785156	648.6419677734375	1058.6748046875	490.3237915039062	668.7855834960938	966.7471923828125	480.0303344726562	627.9800415039062	1038.297485351562	351.041748046875	683.8659057617188	1001.097717285156	628.171875	695.358642578125	968.0130615234375	531.3877563476562	696.5740966796875	1032.015258789062	549.168701171875	307.9777221679688	1359.206176757812	537.19873046875	246.1700744628906	1310.239135742188	548.164306640625	130.6989898681641	1091.5751953125	487.8004455566406	139.7174224853516	1073.0322265625	423.7305908203125	203.8421783447266	920.8096313476562	612.2559204101562	126.7623748779297	887.7603149414062	575.9488525390625	121.5720977783203	1043.020629882812	500.2402954101562	202.7719116210938	774.326416015625	652.0215454101562	181.7745971679688	842.788330078125	669.486083984375	131.8289489746094	825.0825805664062	621.9638061523438	340.2931823730469	1520.222045898438	490.2506408691406	510.4876098632812	1583.614135742188	406.6013488769531	454.3002014160156	1592.568603515625	520.1593017578125	398.5742797851562	1502.268310546875	342.5939331054688	530.6468505859375	890.451416015625	298.3103942871094	336.20849609375	868.6709594726562	624.2402954101562	448.3407592773438	924.255859375	612.5867309570312	569.75537109375	925.7244873046875	406.8546142578125	528.06494140625	458.3336486816406	364.8575134277344	549.9777221679688	620.2283325195312	348.8330993652344	219.6695709228516	242.9452209472656	133.8801574707031	439.3491516113281	368.0626220703125	289.5770263671875	238.4826812744141	60.73829650878906	210.2998504638672	203.3565368652344	128.9708251953125	228.7628784179688	245.9762420654297	137.7174835205078	133.0371856689453	175.5788116455078	282.3460998535156	179.3843841552734	485.5499877929688	502.5413818359375	642.3595581054688	389.0291748046875	748.4324951171875	652.4945678710938	516.6256713867188	53.40200805664062	604.971923828125	524.9863891601562	359.5139770507812	646.6160888671875	705.8150634765625	51.61801528930664	679.57275390625	672.896728515625	61.23767852783203	612.5560913085938	602.5137939453125	46.10924911499023	678.0554809570312	500.7837829589844	51.98649597167969	536.0472412109375	
232	2.31	318.1295471191406	949.6694946289062	467.4962768554688	385.3301086425781	952.9544067382812	363.2383422851562	358.1495971679688	1030.4892578125	393.3041076660156	528.8984375	1189.414794921875	533.6704711914062	344.6152648925781	1135.28125	373.7431335449219	384.13916015625	1362.68408203125	405.4296875	497.2379150390625	1284.805908203125	510.4564514160156	287.2624206542969	1242.499633789062	431.3510437011719	427.4278869628906	1308.795288085938	323.4897766113281	547.095703125	1353.729248046875	338.6493530273438	584.5039672851562	1227.3876953125	289.3670043945312	608.7842407226562	1050.692016601562	299.5415649414062	523.98876953125	999.0492553710938	276.5622863769531	665.445068359375	1044.950927734375	494.1630859375	683.388916015625	952.9805297851562	480.772705078125	640.1130981445312	1028.345092773438	355.2008972167969	704.01513671875	982.5255126953125	629.10498046875	711.4970703125	952.2365112304688	531.2193603515625	714.5732421875	1015.678527832031	550.7552490234375	324.4633178710938	1351.460327148438	549.7566528320312	263.6036987304688	1301.223388671875	562.3980712890625	149.6132659912109	1079.704223632812	508.0292358398438	156.6671752929688	1061.141845703125	443.7137756347656	229.73193359375	911.3334350585938	630.4461669921875	151.6682739257812	877.0933227539062	597.26953125	141.7215576171875	1031.151123046875	520.9459838867188	231.8686676025391	764.9999389648438	670.7426147460938	210.9263916015625	833.27685546875	688.6052856445312	159.4049987792969	814.71435546875	643.2048950195312	354.9583129882812	1512.531494140625	501.0857543945312	524.57958984375	1577.288696289062	417.4757080078125	468.1613464355469	1586.124145507812	530.9056396484375	413.7970886230469	1494.698852539062	353.5627746582031	547.5167236328125	881.9127197265625	309.9931945800781	352.7702941894531	860.5965576171875	636.2313842773438	464.8601684570312	917.1630249023438	624.6925659179688	585.9739379882812	918.794189453125	418.0638732910156	560.0345458984375	452.0337829589844	380.8802185058594	575.167724609375	613.5369262695312	362.9474792480469	248.2422943115234	249.9779663085938	146.9385223388672	470.6602172851562	366.6177673339844	304.8695678710938	270.0970458984375	65.35610961914062	216.9533843994141	233.8520812988281	132.2206420898438	237.9366455078125	276.1894836425781	145.2751617431641	142.3449401855469	203.7803344726562	287.4537658691406	193.8712921142578	502.7007446289062	494.9259948730469	651.7022094726562	406.3079223632812	740.5577392578125	664.202880859375	524.1919555664062	50.27998352050781	605.7040405273438	540.6133422851562	351.6588439941406	652.9170532226562	713.6327514648438	44.49642562866211	681.5361328125	680.7174682617188	53.81512451171875	613.92626953125	609.744384765625	42.89330291748047	679.5015869140625	508.2834167480469	46.63932800292969	536.9052734375	
